<svg width="150" height="28" viewBox="0 0 150 28" fill="none" xmlns="http://www.w3.org/2000/svg">
<path d="M0 10C0 4.47715 4.47715 0 10 0H18C23.5228 0 28 4.47715 28 10V18C28 23.5228 23.5228 28 18 28H10C4.47715 28 0 23.5228 0 18V10Z" fill="#185FA5"/>
<path d="M18.142 5.04545H20.7841V16.5256C20.7841 17.7472 20.4972 18.8295 19.9233 19.7727C19.3494 20.7102 18.5426 21.4489 17.5028 21.9886C16.4631 22.5227 15.2443 22.7898 13.8466 22.7898C12.4545 22.7898 11.2386 22.5227 10.1989 21.9886C9.15909 21.4489 8.35227 20.7102 7.77841 19.7727C7.20455 18.8295 6.91761 17.7472 6.91761 16.5256V5.04545H9.55114V16.3125C9.55114 17.1023 9.72443 17.804 10.071 18.4176C10.4233 19.0312 10.9205 19.5142 11.5625 19.8665C12.2045 20.2131 12.9659 20.3864 13.8466 20.3864C14.733 20.3864 15.4972 20.2131 16.1392 19.8665C16.7869 19.5142 17.2813 19.0312 17.6222 18.4176C17.9688 17.804 18.142 17.1023 18.142 16.3125V5.04545Z" fill="white"/>
<path d="M37.2017 15.3157L35.7582 15.5714C35.6978 15.3867 35.6019 15.2109 35.4705 15.044C35.3427 14.8771 35.1687 14.7404 34.9485 14.6339C34.7283 14.5273 34.4531 14.4741 34.1229 14.4741C33.6719 14.4741 33.2955 14.5753 32.9936 14.7777C32.6918 14.9766 32.5408 15.234 32.5408 15.5501C32.5408 15.8235 32.642 16.0437 32.8445 16.2106C33.0469 16.3775 33.3736 16.5142 33.8246 16.6207L35.1243 16.919C35.8771 17.093 36.4382 17.3612 36.8075 17.7234C37.1768 18.0856 37.3615 18.5561 37.3615 19.1349C37.3615 19.625 37.2195 20.0618 36.9354 20.4453C36.6548 20.8253 36.2624 21.1236 35.7582 21.3402C35.2575 21.5568 34.6768 21.6651 34.0163 21.6651C33.1001 21.6651 32.3526 21.4698 31.7738 21.0792C31.195 20.685 30.8398 20.1257 30.7085 19.4013L32.2479 19.1669C32.3438 19.5682 32.5408 19.8718 32.8391 20.0778C33.1374 20.2802 33.5263 20.3814 34.0057 20.3814C34.5277 20.3814 34.945 20.2731 35.2575 20.0565C35.57 19.8363 35.7262 19.5682 35.7262 19.2521C35.7262 18.9964 35.6303 18.7816 35.4386 18.6076C35.2504 18.4336 34.9609 18.3022 34.5703 18.2134L33.1854 17.9098C32.4219 17.7358 31.8572 17.4588 31.4915 17.0788C31.1293 16.6989 30.9482 16.2177 30.9482 15.6353C30.9482 15.1523 31.0831 14.7298 31.353 14.3675C31.6229 14.0053 31.9957 13.723 32.4716 13.5206C32.9474 13.3146 33.4925 13.2116 34.1069 13.2116C34.9911 13.2116 35.6871 13.4034 36.195 13.7869C36.7028 14.1669 37.0384 14.6765 37.2017 15.3157ZM42.9319 13.3182V14.5966H38.4628V13.3182H42.9319ZM39.6613 11.358H41.254V19.0977C41.254 19.4066 41.3002 19.6392 41.3925 19.7955C41.4848 19.9482 41.6038 20.0529 41.7494 20.1097C41.8985 20.163 42.0601 20.1896 42.2341 20.1896C42.3619 20.1896 42.4738 20.1808 42.5697 20.163C42.6656 20.1452 42.7401 20.131 42.7934 20.1204L43.0811 21.4361C42.9887 21.4716 42.8573 21.5071 42.6869 21.5426C42.5164 21.5817 42.3034 21.603 42.0477 21.6065C41.6286 21.6136 41.238 21.5391 40.8758 21.3828C40.5136 21.2266 40.2206 20.9851 39.9969 20.6584C39.7732 20.3317 39.6613 19.9215 39.6613 19.4279V11.358ZM47.0748 21.6811C46.5563 21.6811 46.0875 21.5852 45.6685 21.3935C45.2495 21.1982 44.9174 20.9158 44.6724 20.5465C44.4309 20.1772 44.3102 19.7244 44.3102 19.1882C44.3102 18.7266 44.399 18.3466 44.5765 18.0483C44.7541 17.75 44.9938 17.5138 45.2956 17.3398C45.5975 17.1658 45.9348 17.0344 46.3077 16.9457C46.6806 16.8569 47.0605 16.7894 47.4476 16.7433C47.9377 16.6864 48.3354 16.6403 48.6408 16.6048C48.9462 16.5657 49.1681 16.5036 49.3066 16.4183C49.4451 16.3331 49.5144 16.1946 49.5144 16.0028V15.9656C49.5144 15.5004 49.383 15.1399 49.1202 14.8842C48.861 14.6286 48.4739 14.5007 47.959 14.5007C47.4228 14.5007 47.0002 14.6197 46.6912 14.8576C46.3858 15.092 46.1745 15.353 46.0574 15.6406L44.5605 15.2997C44.7381 14.8026 44.9973 14.4013 45.3382 14.0959C45.6827 13.7869 46.0787 13.5632 46.5261 13.4247C46.9735 13.2827 47.4441 13.2116 47.9377 13.2116C48.2644 13.2116 48.6106 13.2507 48.9764 13.3288C49.3457 13.4034 49.6902 13.5419 50.0098 13.7443C50.3329 13.9467 50.5975 14.2362 50.8034 14.6126C51.0094 14.9854 51.1124 15.4702 51.1124 16.0668V21.5H49.557V20.3814H49.4931C49.3901 20.5874 49.2356 20.7898 49.0297 20.9886C48.8237 21.1875 48.5591 21.3526 48.236 21.484C47.9128 21.6154 47.5257 21.6811 47.0748 21.6811ZM47.421 20.4027C47.8613 20.4027 48.2377 20.3157 48.5502 20.1417C48.8663 19.9677 49.106 19.7404 49.2694 19.4599C49.4363 19.1758 49.5197 18.8722 49.5197 18.549V17.4943C49.4629 17.5511 49.3528 17.6044 49.1895 17.6541C49.0297 17.7003 48.8468 17.7411 48.6408 17.7766C48.4348 17.8086 48.2342 17.8388 48.0389 17.8672C47.8436 17.892 47.6802 17.9134 47.5488 17.9311C47.2399 17.9702 46.9576 18.0359 46.7019 18.1282C46.4498 18.2205 46.2473 18.3537 46.0946 18.5277C45.9455 18.6982 45.8709 18.9254 45.8709 19.2095C45.8709 19.6037 46.0165 19.902 46.3077 20.1044C46.5989 20.3033 46.97 20.4027 47.421 20.4027ZM53.0633 21.5V20.408L57.4951 14.7777V14.7031H53.2071V13.3182H59.482V14.4794L55.2206 20.0405V20.1151H59.6311V21.5H53.0633ZM65.878 10.5909H67.5186V18.3253C67.5186 19.0249 67.3801 19.6232 67.1032 20.1204C66.8297 20.6175 66.4444 20.9975 65.9473 21.2603C65.4501 21.5195 64.8677 21.6491 64.2001 21.6491C63.5858 21.6491 63.0336 21.5373 62.5435 21.3136C62.057 21.0898 61.6717 20.7649 61.3876 20.3388C61.1071 19.9091 60.9668 19.3871 60.9668 18.7727H62.6021C62.6021 19.0746 62.6713 19.3356 62.8098 19.5558C62.9519 19.7759 63.1454 19.9482 63.3904 20.0724C63.639 20.1932 63.9231 20.2536 64.2427 20.2536C64.5907 20.2536 64.8855 20.1808 65.127 20.0352C65.372 19.886 65.5584 19.6676 65.6863 19.38C65.8141 19.0923 65.878 18.7408 65.878 18.3253V10.5909ZM73.2329 21.6651C72.4658 21.6651 71.7964 21.4893 71.2247 21.1378C70.653 20.7862 70.2091 20.2944 69.893 19.6623C69.577 19.0302 69.4189 18.2915 69.4189 17.4464C69.4189 16.5977 69.577 15.8555 69.893 15.2198C70.2091 14.5842 70.653 14.0906 71.2247 13.739C71.7964 13.3874 72.4658 13.2116 73.2329 13.2116C73.9999 13.2116 74.6693 13.3874 75.241 13.739C75.8128 14.0906 76.2567 14.5842 76.5727 15.2198C76.8888 15.8555 77.0468 16.5977 77.0468 17.4464C77.0468 18.2915 76.8888 19.0302 76.5727 19.6623C76.2567 20.2944 75.8128 20.7862 75.241 21.1378C74.6693 21.4893 73.9999 21.6651 73.2329 21.6651ZM73.2382 20.3281C73.7354 20.3281 74.1473 20.1967 74.474 19.9339C74.8007 19.6712 75.0422 19.3214 75.1984 18.8846C75.3582 18.4478 75.4381 17.9666 75.4381 17.4411C75.4381 16.919 75.3582 16.4396 75.1984 16.0028C75.0422 15.5625 74.8007 15.2092 74.474 14.9428C74.1473 14.6765 73.7354 14.5433 73.2382 14.5433C72.7375 14.5433 72.322 14.6765 71.9917 14.9428C71.665 15.2092 71.4218 15.5625 71.262 16.0028C71.1057 16.4396 71.0276 16.919 71.0276 17.4411C71.0276 17.9666 71.1057 18.4478 71.262 18.8846C71.4218 19.3214 71.665 19.6712 71.9917 19.9339C72.322 20.1967 72.7375 20.3281 73.2382 20.3281ZM80.4173 10.5909V21.5H78.8246V10.5909H80.4173ZM83.5667 24.5682C83.3287 24.5682 83.1121 24.5487 82.9168 24.5096C82.7215 24.4741 82.5759 24.435 82.48 24.3924L82.8635 23.0874C83.1547 23.1655 83.414 23.1992 83.6412 23.1886C83.8685 23.1779 84.0692 23.0927 84.2432 22.9329C84.4207 22.7731 84.577 22.5121 84.7119 22.1499L84.909 21.6065L81.9154 13.3182H83.6199L85.692 19.6676H85.7773L87.8493 13.3182H89.5592L86.1874 22.592C86.0312 23.0181 85.8323 23.3786 85.5908 23.6733C85.3493 23.9716 85.0617 24.1953 84.7279 24.3445C84.3941 24.4936 84.007 24.5682 83.5667 24.5682Z" fill="#1A1A1A"/>
</svg>
